<svg width="30" height="30" viewBox="0 0 30 30" fill="none" xmlns="http://www.w3.org/2000/svg">
<path d="M13.2089 3.60489C13.9443 2.12478 16.0557 2.12478 16.7911 3.60489L18.9612 7.97256C19.2524 8.55868 19.812 8.96524 20.4594 9.06108L25.2839 9.77528C26.9188 10.0173 27.5713 12.0254 26.3909 13.1822L22.9076 16.5957C22.4401 17.0538 22.2264 17.7116 22.3353 18.357L23.1469 23.166C23.4219 24.7957 21.7138 26.0368 20.2488 25.2716L15.926 23.0137C15.3458 22.7106 14.6542 22.7106 14.074 23.0137L9.75116 25.2716C8.28622 26.0368 6.57805 24.7957 6.85309 23.1661L7.6647 18.357C7.77361 17.7116 7.55988 17.0538 7.09243 16.5957L3.60913 13.1822C2.42871 12.0254 3.08117 10.0173 4.71609 9.77528L9.54058 9.06108C10.188 8.96524 10.7476 8.55868 11.0388 7.97256L13.2089 3.60489Z" fill="#FEA500"/>
</svg>
